<svg xmlns="http://www.w3.org/2000/svg" viewBox="0 0 512 512" width="512" height="512">
  <defs>
    <clipPath id="d"><circle cx="256" cy="256" r="252"/></clipPath>
    <radialGradient id="glow" cx="50%" cy="50%" r="22%">
      <stop offset="0%" stop-color="#fff0f2" stop-opacity="0.4"/>
      <stop offset="100%" stop-color="#fff0f2" stop-opacity="0"/>
    </radialGradient>
  </defs>
  <circle cx="256" cy="256" r="256" fill="#08090c"/>
  <g clip-path="url(#d)">
    <polygon points="142.9,365.2 139.7,393.1 131.3,414.9 115.9,433.5 76.6,429.2 74.3,389.0 91.6,375.6 115.2,367.1" fill="#7d465e"/>
    <polygon points="111.1,317.0 97.9,341.8 81.5,360.1 62.2,369.8 26.8,352.5 38.7,315.2 59.9,307.6 84.2,309.2" fill="#864b63"/>
    <polygon points="99.2,260.5 77.3,278.7 56.4,289.7 33.8,292.1 6.9,263.2 30.8,232.0 53.8,233.6 76.9,243.0" fill="#79455c"/>
    <polygon points="108.1,203.6 80.4,212.8 58.3,214.8 35.3,210.0 21.0,172.6 55.6,153.3 75.3,162.5 91.8,179.1" fill="#804860"/>
    <polygon points="136.9,153.5 108.6,152.7 85.9,147.0 66.3,132.8 67.4,93.8 105.2,86.9 122.0,103.1 132.1,125.6" fill="#854a63"/>
    <polygon points="181.9,117.3 155.8,105.9 136.5,91.6 124.1,73.8 138.6,36.4 177.2,45.2 185.4,65.3 187.5,90.1" fill="#79455c"/>
    <polygon points="237.0,100.1 216.1,80.4 204.6,60.2 199.3,37.9 225.9,8.6 259.4,31.1 259.6,52.4 252.1,76.5" fill="#7a455d"/>
    <polygon points="294.5,104.1 283.1,77.9 278.6,54.8 282.0,32.7 317.1,15.0 340.8,46.8 332.4,68.7 317.2,87.2" fill="#834a62"/>
    <polygon points="346.9,128.2 345.2,98.9 350.0,76.8 361.0,55.9 400.4,52.9 409.8,92.0 394.9,107.8 374.1,120.6" fill="#7e475f"/>
    <polygon points="387.1,169.5 396.6,141.7 409.1,121.8 425.3,107.4 463.6,119.1 458.4,158.2 439.7,168.3 415.0,173.0" fill="#854a63"/>
    <polygon points="409.3,222.8 428.3,200.4 447.1,185.4 467.9,179.5 499.1,203.3 480.6,238.6 457.3,241.0 435.2,235.4" fill="#7f4860"/>
    <polygon points="411.2,280.4 436.6,266.2 459.0,259.8 481.5,260.9 501.7,294.7 471.6,320.3 450.3,314.3 430.6,301.7" fill="#874c64"/>
    <polygon points="391.7,334.7 420.3,330.3 443.4,332.4 464.6,342.2 471.3,380.9 433.6,394.4 415.2,380.3 402.7,361.5" fill="#824961"/>
    <polygon points="354.4,378.7 381.7,384.1 403.6,394.8 418.6,411.7 411.6,450.2 371.6,448.8 359.7,430.7 354.4,407.2" fill="#894d66"/>
    <polygon points="303.4,405.9 327.6,422.5 342.6,438.6 352.5,460.0 330.9,493.1 293.8,478.5 290.3,455.9 292.3,432.1" fill="#884c65"/>
    <polygon points="246.0,412.9 262.5,436.6 271.1,457.3 272.8,481.9 240.1,504.8 211.5,477.3 215.6,454.7 226.2,434.1" fill="#884c65"/>
    <polygon points="190.1,398.4 197.6,425.6 196.8,450.6 188.8,472.2 151.5,482.0 134.9,446.8 146.7,426.0 164.3,411.3" fill="#864b64"/>
    <polygon points="234.2,358.7 245.0,379.1 250.1,400.1 248.6,417.6 218.1,434.4 196.3,408.0 203.8,389.4 215.7,374.4" fill="#b36980"/>
    <polygon points="191.7,339.2 192.6,362.2 187.7,382.7 179.2,399.0 144.5,400.1 136.8,366.6 151.1,352.9 168.7,344.4" fill="#af667d"/>
    <polygon points="162.2,302.9 152.7,324.4 140.6,340.5 124.7,351.1 93.0,337.5 101.0,304.4 119.4,297.7 139.1,297.6" fill="#b56a80"/>
    <polygon points="151.2,257.6 132.4,272.5 115.7,281.5 96.0,284.5 74.0,258.7 95.6,231.8 114.3,234.7 132.9,243.4" fill="#b76b82"/>
    <polygon points="160.6,211.8 137.7,217.5 118.7,218.1 100.2,212.6 90.8,179.5 121.6,165.1 138.2,175.2 150.3,190.5" fill="#ba6d83"/>
    <polygon points="189.4,175.0 166.2,170.4 147.5,161.3 134.0,148.9 140.2,115.1 174.6,115.9 184.1,131.9 188.6,151.1" fill="#b96d83"/>
    <polygon points="231.1,153.8 211.8,138.7 199.7,124.2 192.4,107.1 212.8,79.1 243.8,94.5 245.2,113.4 241.2,131.4" fill="#be7186"/>
    <polygon points="277.9,153.1 267.1,131.9 262.0,113.1 264.0,93.2 293.9,77.5 315.0,105.4 308.0,123.3 296.8,137.7" fill="#b1677e"/>
    <polygon points="320.2,172.9 319.7,149.1 324.1,129.8 332.6,113.7 367.4,111.9 375.2,144.6 361.7,158.7 343.0,168.1" fill="#b3687f"/>
    <polygon points="350.1,208.9 359.7,187.3 371.2,172.0 387.3,161.0 419.0,174.5 410.7,208.3 392.5,214.5 373.8,213.8" fill="#b1677e"/>
    <polygon points="360.8,254.4 378.5,239.6 397.6,229.6 416.7,227.0 437.9,253.3 416.4,279.8 397.5,277.2 379.0,268.7" fill="#ba6e84"/>
    <polygon points="351.2,300.1 373.9,294.2 394.2,294.3 412.2,299.8 421.5,332.7 391.0,347.7 374.3,337.0 362.8,321.8" fill="#ba6d83"/>
    <polygon points="322.6,336.9 345.9,341.6 363.6,349.8 377.4,362.6 371.6,396.6 337.9,396.8 327.6,380.3 322.7,360.9" fill="#ad647c"/>
    <polygon points="280.9,358.0 299.8,373.1 312.1,386.8 319.3,405.1 299.2,433.2 268.7,418.9 266.2,399.3 270.9,379.6" fill="#b2687f"/>
    <polygon points="279.5,314.1 295.9,323.7 308.2,333.4 316.4,346.4 302.7,371.5 275.3,363.7 272.0,347.3 274.0,331.7" fill="#d3909d"/>
    <polygon points="244.3,317.9 253.3,334.1 258.0,349.5 258.2,365.1 232.8,378.4 213.9,357.1 219.9,342.2 229.7,330.6" fill="#d38f9c"/>
    <polygon points="212.7,301.7 210.8,320.5 206.8,335.9 198.4,349.5 169.9,346.8 166.4,318.5 178.3,309.6 194.1,304.1" fill="#d695a0"/>
    <polygon points="195.3,270.9 184.2,285.8 171.1,296.9 158.4,303.1 134.9,285.8 147.1,259.8 162.5,259.2 178.1,263.1" fill="#d5939f"/>
    <polygon points="196.5,235.6 178.4,241.9 163.3,245.0 148.2,242.3 138.1,215.6 162.9,200.9 176.4,208.3 187.0,220.1" fill="#d899a3"/>
    <polygon points="217.1,206.8 198.7,202.3 184.2,196.6 172.0,186.0 178.4,158.0 207.0,158.7 214.0,171.7 216.9,187.8" fill="#d899a3"/>
    <polygon points="249.8,193.4 236.7,180.3 227.5,167.1 222.8,151.4 243.7,131.4 267.8,147.9 266.4,162.2 259.9,177.6" fill="#d89aa4"/>
    <polygon points="284.6,200.1 280.8,181.5 280.3,166.7 284.9,151.7 312.8,145.1 323.8,171.9 314.9,183.8 301.3,192.5" fill="#d695a0"/>
    <polygon points="310.0,224.6 317.3,206.9 326.0,192.9 336.4,183.4 364.1,193.2 359.2,221.8 345.6,226.6 328.8,227.1" fill="#d28e9b"/>
    <polygon points="318.7,258.8 333.6,247.6 347.9,240.6 362.7,238.7 380.8,261.5 361.8,283.0 347.0,279.5 333.6,271.1" fill="#d5949f"/>
    <polygon points="307.4,292.3 326.9,291.8 342.3,292.9 355.4,299.4 358.0,328.1 329.4,335.2 319.5,324.7 313.0,310.8" fill="#d797a2"/>
    <polygon points="280.8,272.8 294.3,272.0 305.9,272.2 317.0,275.8 319.6,298.9 298.1,306.4 289.7,296.6 285.7,286.0" fill="#efc5c6"/>
    <polygon points="261.8,285.6 271.8,294.3 279.9,302.8 285.9,314.8 270.7,331.6 250.4,320.2 251.0,309.5 255.7,297.3" fill="#efc5c6"/>
    <polygon points="239.0,281.2 239.9,294.8 239.4,307.7 236.1,317.2 212.8,320.0 206.5,297.6 215.0,290.2 226.3,285.4" fill="#eabbbe"/>
    <polygon points="226.4,261.8 216.4,272.3 209.3,280.0 197.4,285.8 179.8,270.8 191.5,250.1 201.9,251.2 213.9,255.8" fill="#ecc0c2"/>
    <polygon points="231.2,239.2 217.5,239.9 205.4,239.8 194.9,236.1 192.2,213.0 214.5,206.1 221.2,214.5 226.1,225.6" fill="#eabbbe"/>
    <polygon points="250.2,226.2 239.7,216.3 231.4,208.2 226.3,197.7 241.2,180.0 261.9,190.7 260.7,203.5 256.4,214.2" fill="#eec4c4"/>
    <polygon points="273.1,230.7 272.6,216.3 272.4,205.4 276.2,193.2 299.4,191.6 305.7,214.4 296.5,222.2 285.6,226.9" fill="#efc6c7"/>
    <polygon points="286.0,250.2 294.5,240.2 303.6,231.6 314.3,226.3 331.9,241.2 321.1,261.7 308.9,260.8 297.4,256.3" fill="#efc5c6"/>
    <polygon points="263.7,256.0 271.7,251.5 276.4,246.6 283.7,242.8 295.8,256.0 283.2,268.8 276.8,265.6 270.4,260.2" fill="#fbe6e3"/>
    <polygon points="258.2,262.9 264.6,268.6 271.8,272.9 277.4,278.6 268.2,293.6 252.1,285.9 253.2,279.3 256.5,271.9" fill="#fce8e4"/>
    <polygon points="250.1,260.3 246.9,267.7 245.0,275.8 241.2,283.2 224.1,279.2 224.6,261.8 233.4,260.5 241.8,261.1" fill="#fce8e4"/>
    <polygon points="249.7,251.4 240.5,250.4 232.7,251.5 225.0,250.2 224.0,232.8 241.4,229.2 244.6,235.6 246.6,243.8" fill="#fae2df"/>
    <polygon points="258.2,249.1 256.5,240.1 253.4,233.8 252.0,225.3 268.2,218.6 277.1,233.7 272.3,238.7 265.1,242.7" fill="#fce8e4"/>
  </g>
  <circle cx="256" cy="256" r="50" fill="url(#glow)"/>
  <circle cx="256" cy="256" r="252" fill="none" stroke="#292b30" stroke-width="2"/>
</svg>
