<svg xmlns="http://www.w3.org/2000/svg" viewBox="0 0 111 111">
<!-- Transparent variant: black background path removed -->
  <style type="text/css">.cls-1 {fill:#C81D75;}
.cls-2 {fill:#EE3D8E;}
.cls-3 {fill:#F16FB2;}
.cls-4 {fill:#980B56;}
.cls-5 {fill:#890B4D;}
.cls-6 {fill:#ED75AF;}
.cls-7 {fill:#ED9BC5;}
.cls-8 {fill:#FFFFFF;}
.cls-9 {fill:#F5B5D2;}
.cls-10 {fill:#F186B6;}
.cls-11 {fill:#890A4D;}
.cls-12 {fill:#C71972;}
.cls-13 {fill:#EF80B8;}
.cls-14 {fill:#F4B2D0;}</style>
  <polygon class="cls-1" points="44.1 15.2 34.9 11.1 32.4 21.2 39 30.3 46.5 33.1 48.2 29.4"/>
  <polygon class="cls-2" points="41.3 21.9 44.1 15.2 48.2 29.4 46.5 33.1"/>
  <polygon class="cls-3" points="35.5 19.6 34.9 11.1 32.4 21.2 35.5 20.1 41.3 21.9"/>
  <polygon class="cls-4" points="35.5 20.1 42.7 31.7 46.5 33.1 39 30.3 32.4 21.2"/>
  <polygon class="cls-1" points="30.3 24 16.3 22.8 20.1 36.2 28.5 42.3 37.7 40.8 38.8 33.6"/>
  <polygon class="cls-2" points="29 28.4 30.1 24 38.8 33.6 36.9 36.2"/>
  <polygon class="cls-3" points="29 28.4 16.3 22.8 30.1 24 29 29.2"/>
  <polygon class="cls-4" points="23 33.3 16.3 22.8 20.1 35.4 23.3 33.3 34.1 41.3 28.5 42.3 20.1 36.2 23.3 33.8"/>
  <polygon class="cls-1" points="18.2 39.3 9.9 41.6 14.3 48.4 26.8 51.3 30.1 45.7"/>
  <polygon class="cls-2" points="19.8 45.2 18.2 39.3 10 41.6 19.8 45.2 25.9 47.2 27.6 45.2"/>
  <polygon class="cls-4" points="14.3 48.4 19.8 45.2 26.5 47.4 26.8 51.3"/>
  <polygon class="cls-2" points="15.5 51.5 5.9 60.3 19.1 68.3 33.6 63.8 36.8 59.8 30.1 53.4"/>
  <polygon class="cls-1" points="5.9 60.3 18.3 63.4 29 56.1 16.3 55.2"/>
  <polygon class="cls-3" points="16.3 55.2 15.5 51.5 6.3 59.8 16.4 55"/>
  <polygon class="cls-4" points="18.7 63.4 35.5 59.8 36.8 60.3 33.6 63.8 19.1 68.3 17.1 67.1"/>
  <polygon class="cls-5" points="5.9 60.3 16.5 66.7 18.3 63.4"/>
  <polygon class="cls-1" points="17.6 71.7 13.9 78.4 21 79 31.9 67.4 32.4 66.5"/>
  <polygon class="cls-2" points="17.6 71.9 21.9 73.6 20.4 76.5 13.9 78.4"/>
  <polygon class="cls-2" points="19.8 76.5 20.4 76.5 21 78.7"/>
  <polygon class="cls-4" points="13.9 78.4 20.4 76.5 21 79"/>
  <polygon class="cls-4" points="20.4 76.5 21.9 73.6 29.4 69.4 21 79"/>
  <polygon class="cls-2" points="24.7 79.2 23.2 93.6 35.9 89.5 46.9 73.5 46.9 69.4 37.7 64.4"/>
  <polygon class="cls-1" points="28.1 82 23.2 93.6 34.8 84.4 39.1 82 41.7 75.8 43.3 73.4 35.6 74.5"/>
  <polygon class="cls-6" points="24.4 82.1 28.1 81.7 28.1 82.5 24.3 82.8"/>
  <polygon class="cls-4" points="23.2 93.6 34.8 84.6 35.4 89.6"/>
  <polygon class="cls-1" points="35.4 84.6 35.9 89.5 35.9 89.5 35.9 89.5 35.9 89.5 35.9 89.5"/>
  <polygon class="cls-1" points="35 84.6 35.9 89.5 35.9 89.5 35.4 84.4"/>
  <polygon class="cls-4" points="35.7 84.6 35.9 89.5 46.9 73.5 46.9 69.4 41.1 75.8"/>
  <polygon class="cls-6" points="43.7 94.8 47.2 96.2 45.7 105.3 39.6 93.6 39.6 93.6"/>
  <polygon class="cls-2" points="47.3 74.3 39.6 93.6 44.3 95.3 52.8 92.9 56.3 82.6 56.5 80.5 52.8 76.5"/>
  <polygon class="cls-1" points="44.3 95.3 45.7 105.3 56.1 96.8 56.2 96.6 56.8 83.3 56.8 83.3 56.8 83.3 56.9 81.5 54.4 86.1 50.3 79.4"/>
  <polygon class="cls-4" points="45.9 105.3 51.8 93.9 55.7 97.4"/>
  <polygon class="cls-3" points="51.8 92.9 56.2 96.6 56.1 97 51.7 93.4"/>
  <polygon class="cls-4" points="49.9 75.8 47.2 74.3 50.3 79.4 54.4 86.1 56.7 83.3 56.8 81.5 54.4 84"/>
  <polygon class="cls-2" points="58.6 83.6 59 96.2 62.6 101.4 65.8 95.5 60.7 80.3"/>
  <polygon class="cls-1" points="59.8 81.8 61.3 92 65.8 95.3 60.7 80.3"/>
  <polygon class="cls-1" points="62.4 79.2 68.7 93.8 77.7 98.8 78.8 98.9 78.9 89.8 67.9 75.4 63.6 74.5"/>
  <polygon class="cls-2" points="65.2 78.1 63.6 74.5 67.9 75.4 78.9 89.8 75.6 89.6 70.5 87.4"/>
  <polygon class="cls-1" points="70.5 87.4 68.8 93.8 77.7 98.9 78.9 89.8 75.6 89.6"/>
  <polygon class="cls-2" points="77.7 98.9 79 89.8 75.6 89.6"/>
  <polygon class="cls-1" points="69.6 65.9 70.5 65.9 75.9 65 78.8 64.4 85.1 69.2 90.4 72.4 94.5 87.4 81.4 86.8 68.2 73.6 72.6 75.8 72.2 73.1"/>
  <polygon class="cls-4" points="86.4 75.4 90.4 72.4 94.5 87.4 86.5 75.4"/>
  <polygon class="cls-2" points="84.5 83.9 82.1 86.8 94.5 87.4 84.4 84"/>
  <polygon class="cls-4" points="72.5 73.3 84.4 84 82.1 86.8 68 73.4"/>
  <polygon class="cls-1" points="75.9 64.9 84.5 69.1 78.8 64.4"/>
  <polygon class="cls-1" points="87.1 58.5 80 62.5 90.5 70.5 102.8 67.9 96.6 60.1"/>
  <polygon class="cls-2" points="80.9 62 88.2 63.8 92.9 67.9 82.8 64.1"/>
  <polygon class="cls-2" points="88.2 63.8 96.6 60.1 96.6 60.1 88.2 63.9"/>
  <polygon class="cls-3" points="90.5 70.5 92.9 67.9 102.8 67.9"/>
  <polygon class="cls-2" points="93.6 41.9 77.7 47.1 73.9 51.7 75.9 53.9 95.3 57.4 104.8 47.2"/>
  <polygon class="cls-1" points="76.9 53.8 90.7 52.4 93.9 45.9 104.8 47.2 95.3 57.4 75.9 57.4"/>
  <polygon class="cls-4" points="90.7 52.4 95.3 57.4 95.3 57.4 95.3 57.4 90.7 53.6"/>
  <polygon class="cls-4" points="90.7 52.4 95.3 57.4 95.3 57.4 90.7 52.5"/>
  <polygon class="cls-4" points="90.7 52.4 95.3 57.4 95.3 57.4 104.8 47.2"/>
  <polygon class="cls-6" points="74.9 50.6 93.9 45.9 94.5 42.3 93.6 41.9 77.7 47.1"/>
  <polygon class="cls-3" points="93.9 45.9 95.7 42.9 94.5 42.3"/>
  <polygon class="cls-1" points="73.9 47.4 91.1 39.2 97.1 27.5 84.4 27.4 75.6 35.6 74.1 40.6"/>
  <polyline class="cls-2" points="74.1 45 89.6 35.6 97.1 27.5 84.8 31.4 74.8 39.8"/>
  <polygon class="cls-2" points="91.1 39.2 89.6 35.6 97.1 27.5"/>
  <polygon class="cls-3" points="84.4 27.4 84.8 31.4 97.1 27.5"/>
  <polygon class="cls-4" points="74.1 40.6 84.8 31.4 84.4 27.4 75.6 35.6"/>
  <polygon class="cls-1" points="68.6 19.4 64.3 29.5 65.3 37.9 71.9 36.2 79.8 27.7 78.5 13.5"/>
  <polygon class="cls-2" points="65.1 36.7 70.4 27.4 75.9 25.6 75.9 25.6 78.5 13.5 68.8 19.4 66.6 24.4 64.3 29.5"/>
  <polygon class="cls-3" points="68.8 19.4 70.5 27.5 69.9 27.7 68.6 19.6"/>
  <polygon class="cls-3" points="75.9 25.6 79.6 25.5 78.5 13.5"/>
  <polygon class="cls-4" points="67.3 37.4 75.9 25.6 79.8 27.7 72.6 35.7"/>
  <polygon class="cls-2" points="47.8 16.7 49.2 15.5 57.5 5.3 65.1 16 62.1 29.9 63.3 37.4 56.3 42.3 52.1 36.7 50.3 31.9"/>
  <polygon class="cls-1" points="52.1 16.7 57.5 5.3 47.8 16.7 50.3 32.9 52.1 35.4 54.4 32.9"/>
  <polygon class="cls-3" points="48.6 16 52.1 16.1 52.1 16.9 47.8 16.7"/>
  <polygon class="cls-1" points="57.9 5.3 65.1 16 60.6 19.6"/>
  <polygon class="cls-4" points="58 33.3 60.6 19.6 65.1 16 62.1 29.9 63.3 37.4 59.7 39.8"/>
  <polygon class="cls-7" points="48.1 35.8 53 27.2 55.3 37.2 55.1 53.5"/>
  <polygon class="cls-8" points="36.5 32.5 45.7 35.8 53.6 53.6 43.6 41.7"/>
  <polygon class="cls-9" points="37.7 37.8 38.4 42.6 53.6 53.6 43.6 41.3"/>
  <polygon class="cls-2" points="48.1 35.8 55.3 37.2 55.1 53.5"/>
  <polygon class="cls-8" points="53 27.2 60.8 37.1 55.1 53.5 55.3 37.2"/>
  <polygon class="cls-7" points="56.7 54.3 63.3 38.6 65.5 37.9 76.1 34.6 73.9 47.9"/>
  <polygon class="cls-8" points="56.9 54.2 66.6 40.5 76.1 34.6 71.9 45.1"/>
  <polygon class="cls-9" points="63.5 38.6 66.6 40.5 66.9 40.2 63.6 38.6"/>
  <polygon class="cls-9" points="73.9 48.6 71.7 45.2 71.9 45.1 73.9 48"/>
  <polygon class="cls-8" points="58 55.5 75.2 51.5 83.9 57.5 73.6 63.4"/>
  <polygon class="cls-2" points="58 55.5 75.7 57.7 73.5 63.4"/>
  <polygon class="cls-7" points="75.7 57.7 77.9 60.8 83.9 57.5 81.1 55.5"/>
  <polygon class="cls-6" points="28.1 53.9 23 47.5 31.4 44.1 36.8 43.3 53.1 55.1 38.4 60.9"/>
  <polygon class="cls-9" points="32.6 51.5 38.4 48.9 36.7 43.2 53.1 55.1 39.5 56.3"/>
  <polygon class="cls-7" points="28.1 53.9 39.5 56.4 38.4 60.9"/>
  <polygon class="cls-2" points="28.1 53.9 39.5 56.4 38.4 60.9"/>
  <polygon class="cls-2" points="39 59.5 38.4 60.9 53.1 55.1 39.5 56.3"/>
  <polygon class="cls-8" points="37.2 67.6 36.5 74.6 45.1 73.1 53.6 57"/>
  <polygon class="cls-9" points="37.3 67.7 44.4 67.1 43.6 69.4 36.5 74.6"/>
  <polygon class="cls-2" points="37.2 67.6 37.8 63.1 53.6 57"/>
  <polygon class="cls-8" points="47.9 72.7 55.1 57.7 60.8 74.8 54.5 83.8"/>
  <polygon class="cls-2" points="53.7 71.3 55.1 57.7 60.8 74.8 54.5 83.8"/>
  <polygon class="cls-9" points="50.3 76.7 53.8 71.4 56.4 73.9 54.5 83.8"/>
  <polygon class="cls-2" points="56.4 73.9 56.4 73.7 56.4 73.7 60.3 75.4 60.2 75.7"/>
  <polygon class="cls-2" points="50.3 76.7 50.1 76.4 53.7 71.7 53.8 71.4"/>
  <polygon class="cls-9" points="56.3 56.5 63.7 73.1 72.6 73.9 71.1 63.9"/>
  <polygon class="cls-2" points="63.7 73 66.8 68.9 72.6 73.9"/>
  <polygon class="cls-8" points="56.3 56.5 66.8 68.9 72 69.6 71.1 63.9"/>
  <polygon class="cls-4" points="35.6 76.5 45 75.3 46.9 73.1 46.9 69.6 44.9 73.1 40.8 75.9 42.3 73.6 36.5 74.6"/>
  <polygon class="cls-10" points="37.7 40.9 43.6 41.4 43.6 41.3 36.5 32.5"/>
  <polygon class="cls-9" points="60.8 51.5 71.7 45.2 73.9 48.5 56.7 54.3"/>
  <polygon class="cls-14" points="73.9 48 74.2 47.1 75.9 35.6 71.9 45.2"/>
</svg>
