<svg xmlns="http://www.w3.org/2000/svg" viewBox="0 0 512 512" width="512" height="512">
  <defs>
    <clipPath id="d"><circle cx="256" cy="256" r="252"/></clipPath>
    <radialGradient id="glow" cx="50%" cy="50%" r="18%">
      <stop offset="0%" stop-color="#fff8ee" stop-opacity="0.35"/>
      <stop offset="100%" stop-color="#fff8ee" stop-opacity="0"/>
    </radialGradient>
  </defs>
  <circle cx="256" cy="256" r="256" fill="#000000"/>
  <g clip-path="url(#d)">
    <polygon points="242.9,240.0 289.0,242.5 269.8,293.7 231.3,267.9" fill="#faecc4"/>
    <polygon points="285.5,299.6 305.9,249.3 313.9,240.9 322.0,241.7 352.9,276.4 310.0,335.8 302.3,337.0 289.8,318.9" fill="#eebb63"/>
    <polygon points="220.7,286.0 261.6,307.3 269.4,325.5 207.3,329.1 196.0,290.4" fill="#efc062"/>
    <polygon points="222.6,233.0 214.5,262.0 190.7,270.1 169.0,263.1 182.0,203.7 212.8,202.9" fill="#f1cb67"/>
    <polygon points="244.9,222.6 228.0,195.8 264.6,155.0 267.5,156.0 299.9,224.0 290.2,230.5" fill="#f2d27c"/>
    <polygon points="319.5,342.6 366.6,287.7 384.3,288.0 407.5,318.4 406.3,322.1 338.4,347.7" fill="#c97553"/>
    <polygon points="209.4,345.7 270.2,334.9 285.3,350.6 274.7,367.3 223.1,390.2 196.1,364.2" fill="#e08d64"/>
    <polygon points="181.0,293.9 186.5,333.4 178.5,354.7 166.6,355.6 136.9,325.5 153.3,286.5 160.8,283.8" fill="#d9865f"/>
    <polygon points="164.5,200.4 152.5,259.2 145.0,261.5 109.6,240.8 131.9,196.0 157.0,194.7" fill="#ca7755"/>
    <polygon points="211.4,178.6 181.1,181.0 174.2,174.5 176.2,110.7 179.3,105.8 179.5,105.8 252.0,142.8 252.2,143.1" fill="#ce7a57"/>
    <polygon points="315.5,215.8 280.3,150.0 328.5,138.2 356.5,184.1 323.5,216.0" fill="#df8c64"/>
    <polygon points="335.5,229.3 370.9,200.4 382.7,200.5 404.1,231.5 385.8,263.5 368.2,261.6" fill="#d17d59"/>
    <polygon points="312.6,361.2 329.5,370.5 368.7,409.6 346.0,433.5 311.4,438.1 297.6,379.4 304.8,361.3" fill="#86523f"/>
    <polygon points="233.5,409.9 281.6,382.4 290.7,442.1 286.7,447.4 254.4,451.4 231.3,426.0" fill="#8d5641"/>
    <polygon points="181.1,380.6 207.7,405.6 204.4,421.5 175.9,436.8 144.8,415.7 144.3,413.1 169.6,382.3" fill="#84523e"/>
    <polygon points="123.5,339.6 152.6,368.7 128.1,400.2 101.5,380.8 100.0,346.4" fill="#85523e"/>
    <polygon points="136.0,278.5 115.5,314.8 92.3,323.2 77.9,314.8 69.4,289.7 81.4,260.7 98.7,262.7" fill="#995b44"/>
    <polygon points="120.5,191.0 99.3,235.3 81.9,236.7 74.9,224.7 87.6,172.8 92.7,171.7" fill="#965a43"/>
    <polygon points="157.9,173.4 133.4,169.2 103.1,154.0 121.8,127.2 161.1,110.5" fill="#965a43"/>
    <polygon points="258.0,130.2 187.7,91.5 226.3,58.3 242.2,62.8 251.9,73.7" fill="#86523f"/>
    <polygon points="272.1,130.0 277.0,73.4 315.2,61.1 341.5,89.6 320.8,113.9 275.2,131.0 272.3,130.3" fill="#7e4f3c"/>
    <polygon points="341.8,130.4 360.5,104.3 375.4,102.7 394.7,133.2 400.3,152.5 383.3,174.3 371.6,173.8" fill="#955943"/>
    <polygon points="421.5,218.6 400.2,188.9 419.5,169.6 449.3,174.5 448.4,216.8" fill="#6e4836"/>
    <polygon points="424.0,244.4 450.7,241.0 464.1,249.0 452.9,291.0 425.4,304.8 403.9,274.1" fill="#754b38"/>
    <polygon points="342.3,357.1 409.8,332.7 410.6,348.0 396.9,394.6 382.9,395.1" fill="#965a43"/>
    <polygon points="71.7,1010.1 162.1,670.7 259.5,477.0 289.9,469.7 440.9,1009.7" fill="#2a1a14"/>
    <polygon points="215.1,440.8 236.2,466.5 157.7,669.1 188.6,457.8" fill="#3a291e"/>
    <polygon points="-288.8,1012.2 133.3,432.6 161.4,455.3 152.8,668.4 68.1,1009.1" fill="#2a1a14"/>
    <polygon points="-501.4,1013.4 -498.3,689.6 88.1,402.7 115.9,417.9 116.3,420.5 -289.9,1011.4" fill="#2a1a14"/>
    <polygon points="79.0,346.8 76.6,380.0 -499.1,688.3 -499.0,681.7 64.7,339.6" fill="#2e1d16"/>
    <polygon points="-497.1,271.3 44.8,299.2 54.1,322.8 -499.7,680.5" fill="#2a1a14"/>
    <polygon points="-497.9,73.4 51.5,241.3 60.3,251.4 45.6,277.9 -497.1,269.7" fill="#2e1d16"/>
    <polygon points="-498.7,-63.0 71.9,169.6 57.9,219.5 -497.6,71.7" fill="#38271d"/>
    <polygon points="-501.7,-501.1 -329.1,-499.5 97.7,114.5 86.1,143.8 81.3,145.0 -497.7,-64.9" fill="#2c1c15"/>
    <polygon points="-220.5,-499.2 159.2,90.7 155.2,94.6 114.6,102.5 -328.4,-500.3" fill="#35241b"/>
    <polygon points="5.5,-497.8 209.4,42.0 176.7,79.1 176.5,79.1 -218.9,-500.0" fill="#2c1c16"/>
    <polygon points="406.8,-497.7 312.4,-54.5 248.5,35.6 233.0,32.5 7.1,-498.4" fill="#2a1a14"/>
    <polygon points="309.6,44.7 272.1,54.9 262.4,44.7 317.5,-51.5" fill="#35241b"/>
    <polygon points="946.9,-501.9 371.6,74.4 357.2,76.7 337.5,44.4 328.4,-51.4 409.9,-497.1" fill="#2a1a14"/>
    <polygon points="1013.5,-501.2 1010.6,-188.0 621.9,43.6 416.3,114.5 389.7,91.9 948.2,-500.6" fill="#2a1a14"/>
    <polygon points="423.9,146.6 421.0,127.6 622.8,45.7 452.7,152.0" fill="#34231a"/>
    <polygon points="1009.0,180.3 478.8,225.8 466.6,217.0 469.9,176.1 625.8,50.2 1011.8,-185.8" fill="#2a1a14"/>
    <polygon points="1011.0,581.6 474.1,295.2 481.9,253.8 1009.3,182.7" fill="#2a1a14"/>
    <polygon points="1011.2,668.6 438.3,343.0 433.3,328.9 433.9,325.2 462.8,317.3 1010.4,583.1" fill="#301f17"/>
    <polygon points="1012.4,829.4 414.2,399.5 431.2,355.8 1010.8,669.5" fill="#312018"/>
    <polygon points="1012.8,1014.0 596.3,1009.9 367.6,450.3 385.0,423.6 398.5,422.2 1011.1,831.0" fill="#2a1a14"/>
    <polygon points="442.7,1009.3 309.9,464.4 313.7,459.2 347.3,459.0 595.0,1010.5" fill="#2a1a14"/>
  </g>
  <circle cx="256" cy="256" r="40" fill="url(#glow)"/>
  <circle cx="256" cy="256" r="252" fill="none" stroke="#2a1a14" stroke-width="2"/>
</svg>
